# xmcd CD database file
#
# Track frame offsets:
#	150
#	43770
#	71420
#	124642
#	195966
#	217930
#	228085
#	270487
#	311439
#
# Disc length: 4440 seconds
#
# Revision: 1
# Processed by: cddbd v1.5.1PL0 Copyright (c) Steve Scherf et al.
# Submitted via: CDex 1.50
#
DISCID=6e115609
DTITLE=Andrew Hill - The Day the World Sttod Still
DYEAR=2003
DGENRE=Jazz
TTITLE0=Not Sa No Sa
TTITLE1=Flying in the Sky
TTITLE2=Ghetto Echoes
TTITLE3=Yesterday Tomorrow
TTITLE4=Hermano Frere
TTITLE5=Do To
TTITLE6=When Peace Comes
TTITLE7=11/8
TTITLE8=When the World Stood Still (pt II)
EXTD=YEAR: 2003
EXTT0=
EXTT1=
EXTT2=
EXTT3=
EXTT4=
EXTT5=
EXTT6=
EXTT7=
EXTT8=
PLAYORDER=
